<svg xmlns="http://www.w3.org/2000/svg" width="1050" height="720" viewBox="0 0 1050 720">
<rect width="1050" height="720" fill="#f5f7fa"/>
<text x="35" y="45" font-family="sans-serif" font-size="25" fill="#263447">Wicker shop · proposed wall and roof surfaces</text>
<text x="35" y="78" font-family="sans-serif" font-size="16" fill="#263447">Local assembly hypothesis · opening heights traced from elevations · no park registration</text>
<polygon points="452.91,331.28 434.65,325.41 434.65,246.32 452.91,252.19" fill="#c4a97c" stroke="#574f40" stroke-width="1.3"/>
<polygon points="474.49,287.99 452.91,281.05 452.91,252.19 474.49,259.13" fill="#c4a97c" stroke="#574f40" stroke-width="1.3"/>
<polygon points="434.65,325.41 362.47,365.68 362.47,286.59 434.65,246.32" fill="#c4a97c" stroke="#574f40" stroke-width="1.3"/>
<polygon points="814.00,447.39 474.49,338.22 474.49,259.13 814.00,368.30" fill="#c4a97c" stroke="#574f40" stroke-width="1.3"/>
<polygon points="362.47,305.83 266.23,359.52 266.23,340.28 362.47,286.59" fill="#c4a97c" stroke="#574f40" stroke-width="1.3"/>
<polygon points="434.65,246.32 206.08,373.83 320.36,224.57" fill="#b19368" stroke="#574f40" stroke-width="1.3"/>
<polygon points="266.23,419.37 206.08,452.93 206.08,373.83 266.23,340.28" fill="#c4a97c" stroke="#574f40" stroke-width="1.3"/>
<polygon points="430.57,231.46 835.75,361.12 712.59,341.68 307.41,212.02" fill="#b7cba1" stroke="#574f40" stroke-width="1.3"/>
<polygon points="748.27,483.86 814.00,447.39 814.00,368.30 748.27,404.76" fill="#c4a97c" stroke="#574f40" stroke-width="1.3"/>
<polygon points="307.41,212.02 712.59,341.68 589.43,499.67 184.25,370.01" fill="#859e6e" stroke="#574f40" stroke-width="1.3"/>
<polygon points="206.08,452.93 585.27,574.27 585.27,495.18 206.08,373.83" fill="#c4a97c" stroke="#574f40" stroke-width="1.3"/>
<polygon points="651.00,477.95 748.27,424.00 748.27,404.76 651.00,458.71" fill="#c4a97c" stroke="#574f40" stroke-width="1.3"/>
<polygon points="585.27,495.18 814.00,368.30 699.64,346.23" fill="#b19368" stroke="#574f40" stroke-width="1.3"/>
<polygon points="585.27,574.27 651.00,537.81 651.00,458.71 585.27,495.18" fill="#c4a97c" stroke="#574f40" stroke-width="1.3"/>
<text x="35" y="620" font-family="sans-serif" font-size="16" fill="#263447">12 wall panels · 22 wall triangles · 4 main roof triangles</text>
<text x="35" y="650" font-family="sans-serif" font-size="16" fill="#263447">Shoulder about 3.3 m · gable apex about 6.9 m · broad openings about 2.5 m high</text>
<text x="35" y="680" font-family="sans-serif" font-size="16" fill="#263447">Wall thickness, fascia and roof projection remain unresolved. Proposed geometry; not as-built.</text>
</svg>
